<svg width="25" height="25" viewBox="0 0 25 25" fill="none" xmlns="http://www.w3.org/2000/svg">
<path d="M12.6831 16.5493C14.8922 16.5493 16.6831 14.7585 16.6831 12.5493C16.6831 10.3402 14.8922 8.54932 12.6831 8.54932C10.474 8.54932 8.68311 10.3402 8.68311 12.5493C8.68311 14.7585 10.474 16.5493 12.6831 16.5493Z" stroke="#211F60" stroke-width="2" stroke-linecap="round" stroke-linejoin="round"/>
<path d="M16.6831 8.54931V13.5493C16.6831 14.345 16.9992 15.108 17.5618 15.6706C18.1244 16.2332 18.8875 16.5493 19.6831 16.5493C20.4788 16.5493 21.2418 16.2332 21.8044 15.6706C22.367 15.108 22.6831 14.345 22.6831 13.5493V12.5493C22.683 10.2923 21.9193 8.10178 20.5164 6.33384C19.1134 4.56589 17.1537 3.32453 14.9558 2.8116C12.7578 2.29868 10.451 2.54435 8.41046 3.50867C6.36988 4.473 4.71551 6.09926 3.71637 8.12303C2.71723 10.1468 2.43208 12.449 2.90728 14.6554C3.38248 16.8618 4.59009 18.8425 6.33374 20.2756C8.0774 21.7086 10.2545 22.5097 12.5112 22.5485C14.7678 22.5873 16.9712 21.8615 18.7631 20.4893" stroke="#211F60" stroke-width="2" stroke-linecap="round" stroke-linejoin="round"/>
</svg>
